# xmcd
#
# Track frame offsets:
#	183
#	17035
#	53405
#	79163
#	118608
#	151393
#
# Disc length: 2376 seconds
#
# Revision: 1
# Processed by: cddbd v1.5PL3 Copyright (c) Steve Scherf et al.
# Submitted via: audiograbber 1.83.01
#
DISCID=3c094606
DTITLE=EMJ - Real Love
DYEAR=1995
DGENRE=House
TTITLE0=Real Love (Radio Edit)
TTITLE1=Real Love (Kamasutra Club Mix)
TTITLE2=Real Love (Original Club Mix)
TTITLE3=Real Love (Kamasutra Dub Mix)
TTITLE4=Real Love (Project 'A' Givin' It Hard Dub)
TTITLE5=Real Love (Tom Tom Club Mix)
EXTD=
EXTT0=
EXTT1=
EXTT2=
EXTT3=
EXTT4=
EXTT5=
PLAYORDER=
